<mxfile host="app.diagrams.net" modified="2024-04-12T11:27:54.733Z" agent="Mozilla/5.0 (Macintosh; Intel Mac OS X 10_15_7) AppleWebKit/537.36 (KHTML, like Gecko) Chrome/123.0.0.0 Safari/537.36" version="24.2.3" etag="e9K_FNy8QGZBELjUhDo4" type="github">
  <diagram name="PÃ¡gina-1" id="X1X9c_lLmwSshANQ2opI">
    <mxGraphModel>
      <root>
        <mxCell id="0" />
        <mxCell id="1" parent="0" />
      </root>
    </mxGraphModel>
  </diagram>
</mxfile>
